<mxfile host="app.diagrams.net" modified="2023-05-04T14:12:57.853Z" agent="Mozilla/5.0 (Windows NT 10.0; Win64; x64) AppleWebKit/537.36 (KHTML, like Gecko) Chrome/112.0.0.0 Safari/537.36" etag="Dz72bU-f8Wr1_9a47wxO" version="21.2.3" type="github">
  <diagram id="C5RBs43oDa-KdzZeNtuy" name="Page-1">
    <mxGraphModel dx="1615" dy="743" grid="1" gridSize="10" guides="1" tooltips="1" connect="1" arrows="1" fold="1" page="1" pageScale="1" pageWidth="827" pageHeight="1169" math="0" shadow="0">
      <root>
        <mxCell id="WIyWlLk6GJQsqaUBKTNV-0" />
        <mxCell id="WIyWlLk6GJQsqaUBKTNV-1" parent="WIyWlLk6GJQsqaUBKTNV-0" />
        <mxCell id="yxe5Q3Sf5L_R0xSFJ02G-0" value="L&#39;utilisateur saisie dans le champs de recherche" style="rounded=1;whiteSpace=wrap;html=1;" parent="WIyWlLk6GJQsqaUBKTNV-1" vertex="1">
          <mxGeometry x="350" y="10" width="120" height="60" as="geometry" />
        </mxCell>
        <mxCell id="yxe5Q3Sf5L_R0xSFJ02G-5" style="edgeStyle=orthogonalEdgeStyle;rounded=0;orthogonalLoop=1;jettySize=auto;html=1;entryX=1;entryY=0.5;entryDx=0;entryDy=0;" parent="WIyWlLk6GJQsqaUBKTNV-1" source="yxe5Q3Sf5L_R0xSFJ02G-1" target="cdySZ4cRYepUSvJREWyh-46" edge="1">
          <mxGeometry relative="1" as="geometry">
            <mxPoint x="170" y="1020" as="targetPoint" />
            <Array as="points">
              <mxPoint x="240" y="155" />
              <mxPoint x="240" y="155" />
            </Array>
          </mxGeometry>
        </mxCell>
        <mxCell id="yxe5Q3Sf5L_R0xSFJ02G-7" value="Non" style="edgeLabel;html=1;align=center;verticalAlign=middle;resizable=0;points=[];" parent="yxe5Q3Sf5L_R0xSFJ02G-5" vertex="1" connectable="0">
          <mxGeometry x="0.2267" y="2" relative="1" as="geometry">
            <mxPoint as="offset" />
          </mxGeometry>
        </mxCell>
        <mxCell id="yxe5Q3Sf5L_R0xSFJ02G-6" style="edgeStyle=orthogonalEdgeStyle;rounded=0;orthogonalLoop=1;jettySize=auto;html=1;exitX=1;exitY=0.5;exitDx=0;exitDy=0;entryX=0.5;entryY=0;entryDx=0;entryDy=0;" parent="WIyWlLk6GJQsqaUBKTNV-1" source="yxe5Q3Sf5L_R0xSFJ02G-1" target="yxe5Q3Sf5L_R0xSFJ02G-10" edge="1">
          <mxGeometry relative="1" as="geometry">
            <mxPoint x="540" y="155" as="targetPoint" />
          </mxGeometry>
        </mxCell>
        <mxCell id="yxe5Q3Sf5L_R0xSFJ02G-8" value="Oui" style="edgeLabel;html=1;align=center;verticalAlign=middle;resizable=0;points=[];" parent="yxe5Q3Sf5L_R0xSFJ02G-6" vertex="1" connectable="0">
          <mxGeometry x="-0.28" y="-1" relative="1" as="geometry">
            <mxPoint as="offset" />
          </mxGeometry>
        </mxCell>
        <mxCell id="yxe5Q3Sf5L_R0xSFJ02G-1" value="plus que 3 caractères saisies ?" style="rhombus;whiteSpace=wrap;html=1;" parent="WIyWlLk6GJQsqaUBKTNV-1" vertex="1">
          <mxGeometry x="360" y="110" width="100" height="90" as="geometry" />
        </mxCell>
        <mxCell id="yxe5Q3Sf5L_R0xSFJ02G-2" value="" style="endArrow=classic;html=1;rounded=0;exitX=0.5;exitY=1;exitDx=0;exitDy=0;entryX=0.5;entryY=0;entryDx=0;entryDy=0;" parent="WIyWlLk6GJQsqaUBKTNV-1" source="yxe5Q3Sf5L_R0xSFJ02G-0" target="yxe5Q3Sf5L_R0xSFJ02G-1" edge="1">
          <mxGeometry width="50" height="50" relative="1" as="geometry">
            <mxPoint x="390" y="250" as="sourcePoint" />
            <mxPoint x="440" y="200" as="targetPoint" />
          </mxGeometry>
        </mxCell>
        <mxCell id="yxe5Q3Sf5L_R0xSFJ02G-14" style="edgeStyle=orthogonalEdgeStyle;rounded=0;orthogonalLoop=1;jettySize=auto;html=1;entryX=0.5;entryY=0;entryDx=0;entryDy=0;" parent="WIyWlLk6GJQsqaUBKTNV-1" source="yxe5Q3Sf5L_R0xSFJ02G-9" target="yxe5Q3Sf5L_R0xSFJ02G-13" edge="1">
          <mxGeometry relative="1" as="geometry">
            <Array as="points">
              <mxPoint x="740" y="370" />
            </Array>
          </mxGeometry>
        </mxCell>
        <mxCell id="yxe5Q3Sf5L_R0xSFJ02G-20" value="Oui" style="edgeLabel;html=1;align=center;verticalAlign=middle;resizable=0;points=[];" parent="yxe5Q3Sf5L_R0xSFJ02G-14" vertex="1" connectable="0">
          <mxGeometry x="0.0642" y="-4" relative="1" as="geometry">
            <mxPoint as="offset" />
          </mxGeometry>
        </mxCell>
        <mxCell id="yxe5Q3Sf5L_R0xSFJ02G-17" style="edgeStyle=orthogonalEdgeStyle;rounded=0;orthogonalLoop=1;jettySize=auto;html=1;entryX=0.5;entryY=0;entryDx=0;entryDy=0;exitX=0.5;exitY=1;exitDx=0;exitDy=0;" parent="WIyWlLk6GJQsqaUBKTNV-1" source="yxe5Q3Sf5L_R0xSFJ02G-9" target="yxe5Q3Sf5L_R0xSFJ02G-22" edge="1">
          <mxGeometry relative="1" as="geometry" />
        </mxCell>
        <mxCell id="yxe5Q3Sf5L_R0xSFJ02G-18" value="Non" style="edgeLabel;html=1;align=center;verticalAlign=middle;resizable=0;points=[];" parent="yxe5Q3Sf5L_R0xSFJ02G-17" vertex="1" connectable="0">
          <mxGeometry x="0.1925" y="-1" relative="1" as="geometry">
            <mxPoint as="offset" />
          </mxGeometry>
        </mxCell>
        <mxCell id="yxe5Q3Sf5L_R0xSFJ02G-9" value="Le titre contient les caractères saisis ?" style="rhombus;whiteSpace=wrap;html=1;" parent="WIyWlLk6GJQsqaUBKTNV-1" vertex="1">
          <mxGeometry x="490" y="325" width="100" height="90" as="geometry" />
        </mxCell>
        <mxCell id="yxe5Q3Sf5L_R0xSFJ02G-12" style="edgeStyle=orthogonalEdgeStyle;rounded=0;orthogonalLoop=1;jettySize=auto;html=1;" parent="WIyWlLk6GJQsqaUBKTNV-1" source="yxe5Q3Sf5L_R0xSFJ02G-10" target="yxe5Q3Sf5L_R0xSFJ02G-9" edge="1">
          <mxGeometry relative="1" as="geometry" />
        </mxCell>
        <mxCell id="yxe5Q3Sf5L_R0xSFJ02G-10" value="Aller à la recette suivante" style="rounded=1;whiteSpace=wrap;html=1;" parent="WIyWlLk6GJQsqaUBKTNV-1" vertex="1">
          <mxGeometry x="480" y="230" width="120" height="60" as="geometry" />
        </mxCell>
        <mxCell id="yxe5Q3Sf5L_R0xSFJ02G-21" style="edgeStyle=orthogonalEdgeStyle;rounded=0;orthogonalLoop=1;jettySize=auto;html=1;entryX=1;entryY=0.5;entryDx=0;entryDy=0;" parent="WIyWlLk6GJQsqaUBKTNV-1" source="yxe5Q3Sf5L_R0xSFJ02G-13" target="yxe5Q3Sf5L_R0xSFJ02G-10" edge="1">
          <mxGeometry relative="1" as="geometry">
            <Array as="points">
              <mxPoint x="780" y="445" />
              <mxPoint x="780" y="260" />
            </Array>
          </mxGeometry>
        </mxCell>
        <mxCell id="cdySZ4cRYepUSvJREWyh-44" style="edgeStyle=orthogonalEdgeStyle;rounded=0;orthogonalLoop=1;jettySize=auto;html=1;entryX=0.5;entryY=0;entryDx=0;entryDy=0;" edge="1" parent="WIyWlLk6GJQsqaUBKTNV-1" source="yxe5Q3Sf5L_R0xSFJ02G-13" target="cdySZ4cRYepUSvJREWyh-45">
          <mxGeometry relative="1" as="geometry">
            <mxPoint x="740" y="1220" as="targetPoint" />
          </mxGeometry>
        </mxCell>
        <mxCell id="yxe5Q3Sf5L_R0xSFJ02G-13" value="On ajoute la recette à la liste des recettes sélectionnées" style="rounded=1;whiteSpace=wrap;html=1;" parent="WIyWlLk6GJQsqaUBKTNV-1" vertex="1">
          <mxGeometry x="680" y="1010" width="120" height="60" as="geometry" />
        </mxCell>
        <mxCell id="yxe5Q3Sf5L_R0xSFJ02G-24" style="edgeStyle=orthogonalEdgeStyle;rounded=0;orthogonalLoop=1;jettySize=auto;html=1;entryX=0;entryY=0.5;entryDx=0;entryDy=0;" parent="WIyWlLk6GJQsqaUBKTNV-1" source="yxe5Q3Sf5L_R0xSFJ02G-22" target="yxe5Q3Sf5L_R0xSFJ02G-13" edge="1">
          <mxGeometry relative="1" as="geometry" />
        </mxCell>
        <mxCell id="yxe5Q3Sf5L_R0xSFJ02G-25" value="Oui" style="edgeLabel;html=1;align=center;verticalAlign=middle;resizable=0;points=[];" parent="yxe5Q3Sf5L_R0xSFJ02G-24" vertex="1" connectable="0">
          <mxGeometry x="-0.3467" relative="1" as="geometry">
            <mxPoint as="offset" />
          </mxGeometry>
        </mxCell>
        <mxCell id="yxe5Q3Sf5L_R0xSFJ02G-27" style="edgeStyle=orthogonalEdgeStyle;rounded=0;orthogonalLoop=1;jettySize=auto;html=1;entryX=0.5;entryY=0;entryDx=0;entryDy=0;" parent="WIyWlLk6GJQsqaUBKTNV-1" source="yxe5Q3Sf5L_R0xSFJ02G-22" target="yxe5Q3Sf5L_R0xSFJ02G-26" edge="1">
          <mxGeometry relative="1" as="geometry">
            <Array as="points">
              <mxPoint x="540" y="570" />
              <mxPoint x="540" y="570" />
            </Array>
          </mxGeometry>
        </mxCell>
        <mxCell id="yxe5Q3Sf5L_R0xSFJ02G-28" value="Non" style="edgeLabel;html=1;align=center;verticalAlign=middle;resizable=0;points=[];" parent="yxe5Q3Sf5L_R0xSFJ02G-27" vertex="1" connectable="0">
          <mxGeometry x="-0.2198" y="-1" relative="1" as="geometry">
            <mxPoint as="offset" />
          </mxGeometry>
        </mxCell>
        <mxCell id="yxe5Q3Sf5L_R0xSFJ02G-22" value="La description contient les caractères saisis ?" style="rhombus;whiteSpace=wrap;html=1;" parent="WIyWlLk6GJQsqaUBKTNV-1" vertex="1">
          <mxGeometry x="490" y="460" width="100" height="90" as="geometry" />
        </mxCell>
        <mxCell id="yxe5Q3Sf5L_R0xSFJ02G-30" style="edgeStyle=orthogonalEdgeStyle;rounded=0;orthogonalLoop=1;jettySize=auto;html=1;entryX=0.5;entryY=0;entryDx=0;entryDy=0;" parent="WIyWlLk6GJQsqaUBKTNV-1" source="yxe5Q3Sf5L_R0xSFJ02G-26" target="yxe5Q3Sf5L_R0xSFJ02G-29" edge="1">
          <mxGeometry relative="1" as="geometry" />
        </mxCell>
        <mxCell id="yxe5Q3Sf5L_R0xSFJ02G-26" value="Aller à l&#39;ingrédient suivant de la recette" style="rounded=1;whiteSpace=wrap;html=1;" parent="WIyWlLk6GJQsqaUBKTNV-1" vertex="1">
          <mxGeometry x="480" y="585" width="120" height="60" as="geometry" />
        </mxCell>
        <mxCell id="yxe5Q3Sf5L_R0xSFJ02G-31" style="edgeStyle=orthogonalEdgeStyle;rounded=0;orthogonalLoop=1;jettySize=auto;html=1;entryX=0;entryY=0.5;entryDx=0;entryDy=0;" parent="WIyWlLk6GJQsqaUBKTNV-1" source="yxe5Q3Sf5L_R0xSFJ02G-29" target="yxe5Q3Sf5L_R0xSFJ02G-13" edge="1">
          <mxGeometry relative="1" as="geometry">
            <Array as="points">
              <mxPoint x="610" y="735" />
              <mxPoint x="610" y="1040" />
            </Array>
          </mxGeometry>
        </mxCell>
        <mxCell id="yxe5Q3Sf5L_R0xSFJ02G-32" value="Oui" style="edgeLabel;html=1;align=center;verticalAlign=middle;resizable=0;points=[];" parent="yxe5Q3Sf5L_R0xSFJ02G-31" vertex="1" connectable="0">
          <mxGeometry x="-0.5344" y="1" relative="1" as="geometry">
            <mxPoint as="offset" />
          </mxGeometry>
        </mxCell>
        <mxCell id="yxe5Q3Sf5L_R0xSFJ02G-33" style="edgeStyle=orthogonalEdgeStyle;rounded=0;orthogonalLoop=1;jettySize=auto;html=1;entryX=0.5;entryY=0;entryDx=0;entryDy=0;" parent="WIyWlLk6GJQsqaUBKTNV-1" source="yxe5Q3Sf5L_R0xSFJ02G-29" target="yxe5Q3Sf5L_R0xSFJ02G-35" edge="1">
          <mxGeometry relative="1" as="geometry">
            <Array as="points">
              <mxPoint x="460" y="735" />
              <mxPoint x="460" y="800" />
            </Array>
          </mxGeometry>
        </mxCell>
        <mxCell id="yxe5Q3Sf5L_R0xSFJ02G-34" value="Nont" style="edgeLabel;html=1;align=center;verticalAlign=middle;resizable=0;points=[];" parent="yxe5Q3Sf5L_R0xSFJ02G-33" vertex="1" connectable="0">
          <mxGeometry x="-0.4754" relative="1" as="geometry">
            <mxPoint as="offset" />
          </mxGeometry>
        </mxCell>
        <mxCell id="yxe5Q3Sf5L_R0xSFJ02G-29" value="L&#39;ingrédient contient les caractères saisis ?" style="rhombus;whiteSpace=wrap;html=1;" parent="WIyWlLk6GJQsqaUBKTNV-1" vertex="1">
          <mxGeometry x="490" y="690" width="100" height="90" as="geometry" />
        </mxCell>
        <mxCell id="yxe5Q3Sf5L_R0xSFJ02G-36" value="oui" style="edgeStyle=orthogonalEdgeStyle;rounded=0;orthogonalLoop=1;jettySize=auto;html=1;entryX=0;entryY=0.5;entryDx=0;entryDy=0;" parent="WIyWlLk6GJQsqaUBKTNV-1" source="yxe5Q3Sf5L_R0xSFJ02G-35" target="yxe5Q3Sf5L_R0xSFJ02G-26" edge="1">
          <mxGeometry relative="1" as="geometry">
            <Array as="points">
              <mxPoint x="390" y="840" />
              <mxPoint x="390" y="615" />
            </Array>
          </mxGeometry>
        </mxCell>
        <mxCell id="yxe5Q3Sf5L_R0xSFJ02G-38" value="Non" style="edgeStyle=orthogonalEdgeStyle;rounded=0;orthogonalLoop=1;jettySize=auto;html=1;" parent="WIyWlLk6GJQsqaUBKTNV-1" source="yxe5Q3Sf5L_R0xSFJ02G-35" target="yxe5Q3Sf5L_R0xSFJ02G-37" edge="1">
          <mxGeometry relative="1" as="geometry" />
        </mxCell>
        <mxCell id="yxe5Q3Sf5L_R0xSFJ02G-35" value="Y-a-t-il encore des ingredients ?" style="rhombus;whiteSpace=wrap;html=1;" parent="WIyWlLk6GJQsqaUBKTNV-1" vertex="1">
          <mxGeometry x="500" y="800" width="80" height="80" as="geometry" />
        </mxCell>
        <mxCell id="yxe5Q3Sf5L_R0xSFJ02G-39" value="Oui" style="edgeStyle=orthogonalEdgeStyle;rounded=0;orthogonalLoop=1;jettySize=auto;html=1;entryX=0;entryY=0.5;entryDx=0;entryDy=0;" parent="WIyWlLk6GJQsqaUBKTNV-1" source="yxe5Q3Sf5L_R0xSFJ02G-37" target="yxe5Q3Sf5L_R0xSFJ02G-10" edge="1">
          <mxGeometry relative="1" as="geometry">
            <Array as="points">
              <mxPoint x="260" y="960" />
              <mxPoint x="260" y="260" />
            </Array>
          </mxGeometry>
        </mxCell>
        <mxCell id="yxe5Q3Sf5L_R0xSFJ02G-40" style="edgeStyle=orthogonalEdgeStyle;rounded=0;orthogonalLoop=1;jettySize=auto;html=1;entryX=0.5;entryY=0;entryDx=0;entryDy=0;exitX=0.5;exitY=1;exitDx=0;exitDy=0;" parent="WIyWlLk6GJQsqaUBKTNV-1" source="yxe5Q3Sf5L_R0xSFJ02G-37" target="cdySZ4cRYepUSvJREWyh-13" edge="1">
          <mxGeometry relative="1" as="geometry">
            <Array as="points">
              <mxPoint x="540" y="1050" />
              <mxPoint x="280" y="1050" />
            </Array>
          </mxGeometry>
        </mxCell>
        <mxCell id="yxe5Q3Sf5L_R0xSFJ02G-41" value="Non" style="edgeLabel;html=1;align=center;verticalAlign=middle;resizable=0;points=[];" parent="yxe5Q3Sf5L_R0xSFJ02G-40" vertex="1" connectable="0">
          <mxGeometry x="-0.7777" relative="1" as="geometry">
            <mxPoint as="offset" />
          </mxGeometry>
        </mxCell>
        <mxCell id="yxe5Q3Sf5L_R0xSFJ02G-37" value="Y-a-t-il encore des recettes ?" style="rhombus;whiteSpace=wrap;html=1;" parent="WIyWlLk6GJQsqaUBKTNV-1" vertex="1">
          <mxGeometry x="500" y="920" width="80" height="80" as="geometry" />
        </mxCell>
        <mxCell id="cdySZ4cRYepUSvJREWyh-12" style="edgeStyle=orthogonalEdgeStyle;rounded=0;orthogonalLoop=1;jettySize=auto;html=1;entryX=1;entryY=0.5;entryDx=0;entryDy=0;" edge="1" parent="WIyWlLk6GJQsqaUBKTNV-1" source="cdySZ4cRYepUSvJREWyh-11" target="yxe5Q3Sf5L_R0xSFJ02G-0">
          <mxGeometry relative="1" as="geometry">
            <Array as="points">
              <mxPoint x="850" y="40" />
              <mxPoint x="850" y="40" />
            </Array>
          </mxGeometry>
        </mxCell>
        <mxCell id="cdySZ4cRYepUSvJREWyh-37" style="edgeStyle=orthogonalEdgeStyle;rounded=0;orthogonalLoop=1;jettySize=auto;html=1;entryX=0.5;entryY=0;entryDx=0;entryDy=0;" edge="1" parent="WIyWlLk6GJQsqaUBKTNV-1" source="cdySZ4cRYepUSvJREWyh-11" target="cdySZ4cRYepUSvJREWyh-16">
          <mxGeometry relative="1" as="geometry">
            <Array as="points">
              <mxPoint x="1000" y="410" />
              <mxPoint x="1065" y="410" />
            </Array>
          </mxGeometry>
        </mxCell>
        <mxCell id="cdySZ4cRYepUSvJREWyh-39" style="edgeStyle=orthogonalEdgeStyle;rounded=0;orthogonalLoop=1;jettySize=auto;html=1;entryX=0.5;entryY=0;entryDx=0;entryDy=0;" edge="1" parent="WIyWlLk6GJQsqaUBKTNV-1" source="cdySZ4cRYepUSvJREWyh-11" target="cdySZ4cRYepUSvJREWyh-38">
          <mxGeometry relative="1" as="geometry">
            <Array as="points">
              <mxPoint x="1000" y="410" />
              <mxPoint x="948" y="410" />
            </Array>
          </mxGeometry>
        </mxCell>
        <mxCell id="cdySZ4cRYepUSvJREWyh-11" value="Utilisateur" style="shape=umlActor;verticalLabelPosition=bottom;verticalAlign=top;html=1;outlineConnect=0;" vertex="1" parent="WIyWlLk6GJQsqaUBKTNV-1">
          <mxGeometry x="985" y="20" width="30" height="60" as="geometry" />
        </mxCell>
        <mxCell id="cdySZ4cRYepUSvJREWyh-13" value="On met à jour la liste des recettes sélectionnées" style="rounded=1;whiteSpace=wrap;html=1;" vertex="1" parent="WIyWlLk6GJQsqaUBKTNV-1">
          <mxGeometry x="220" y="1280" width="120" height="60" as="geometry" />
        </mxCell>
        <mxCell id="cdySZ4cRYepUSvJREWyh-19" style="edgeStyle=orthogonalEdgeStyle;rounded=0;orthogonalLoop=1;jettySize=auto;html=1;entryX=0;entryY=0.5;entryDx=0;entryDy=0;" edge="1" parent="WIyWlLk6GJQsqaUBKTNV-1" source="cdySZ4cRYepUSvJREWyh-16" target="cdySZ4cRYepUSvJREWyh-53">
          <mxGeometry relative="1" as="geometry" />
        </mxCell>
        <mxCell id="cdySZ4cRYepUSvJREWyh-16" value="Sélectionne un ustensile/ingrédients/appareils (u/i/a)" style="rounded=1;whiteSpace=wrap;html=1;" vertex="1" parent="WIyWlLk6GJQsqaUBKTNV-1">
          <mxGeometry x="970" y="750" width="190" height="60" as="geometry" />
        </mxCell>
        <mxCell id="cdySZ4cRYepUSvJREWyh-21" style="edgeStyle=orthogonalEdgeStyle;rounded=0;orthogonalLoop=1;jettySize=auto;html=1;" edge="1" parent="WIyWlLk6GJQsqaUBKTNV-1" source="cdySZ4cRYepUSvJREWyh-18">
          <mxGeometry relative="1" as="geometry">
            <mxPoint x="1580" y="790" as="targetPoint" />
          </mxGeometry>
        </mxCell>
        <mxCell id="cdySZ4cRYepUSvJREWyh-23" style="edgeStyle=orthogonalEdgeStyle;rounded=0;orthogonalLoop=1;jettySize=auto;html=1;entryX=0.5;entryY=0;entryDx=0;entryDy=0;" edge="1" parent="WIyWlLk6GJQsqaUBKTNV-1" source="cdySZ4cRYepUSvJREWyh-18" target="cdySZ4cRYepUSvJREWyh-22">
          <mxGeometry relative="1" as="geometry" />
        </mxCell>
        <mxCell id="cdySZ4cRYepUSvJREWyh-18" value="Des recettes sont déjà sélectionnées ?" style="rhombus;whiteSpace=wrap;html=1;" vertex="1" parent="WIyWlLk6GJQsqaUBKTNV-1">
          <mxGeometry x="1340" y="740" width="80" height="80" as="geometry" />
        </mxCell>
        <mxCell id="cdySZ4cRYepUSvJREWyh-25" style="edgeStyle=orthogonalEdgeStyle;rounded=0;orthogonalLoop=1;jettySize=auto;html=1;entryX=0.5;entryY=0;entryDx=0;entryDy=0;" edge="1" parent="WIyWlLk6GJQsqaUBKTNV-1" source="cdySZ4cRYepUSvJREWyh-22" target="cdySZ4cRYepUSvJREWyh-24">
          <mxGeometry relative="1" as="geometry" />
        </mxCell>
        <mxCell id="cdySZ4cRYepUSvJREWyh-22" value="Aller à la recette suivante" style="rounded=1;whiteSpace=wrap;html=1;" vertex="1" parent="WIyWlLk6GJQsqaUBKTNV-1">
          <mxGeometry x="1320" y="890" width="120" height="60" as="geometry" />
        </mxCell>
        <mxCell id="cdySZ4cRYepUSvJREWyh-28" value="oui" style="edgeStyle=orthogonalEdgeStyle;rounded=0;orthogonalLoop=1;jettySize=auto;html=1;entryX=0;entryY=0.5;entryDx=0;entryDy=0;exitX=0;exitY=0.5;exitDx=0;exitDy=0;" edge="1" parent="WIyWlLk6GJQsqaUBKTNV-1" source="cdySZ4cRYepUSvJREWyh-31" target="cdySZ4cRYepUSvJREWyh-22">
          <mxGeometry relative="1" as="geometry">
            <mxPoint x="1202" y="1043.7600000000002" as="targetPoint" />
            <Array as="points">
              <mxPoint x="1300" y="1160" />
              <mxPoint x="1300" y="920" />
            </Array>
          </mxGeometry>
        </mxCell>
        <mxCell id="cdySZ4cRYepUSvJREWyh-29" value="non" style="edgeStyle=orthogonalEdgeStyle;rounded=0;orthogonalLoop=1;jettySize=auto;html=1;entryX=0;entryY=0.5;entryDx=0;entryDy=0;" edge="1" parent="WIyWlLk6GJQsqaUBKTNV-1" source="cdySZ4cRYepUSvJREWyh-24" target="cdySZ4cRYepUSvJREWyh-26">
          <mxGeometry relative="1" as="geometry" />
        </mxCell>
        <mxCell id="cdySZ4cRYepUSvJREWyh-33" value="oui" style="edgeStyle=orthogonalEdgeStyle;rounded=0;orthogonalLoop=1;jettySize=auto;html=1;entryX=0.5;entryY=0;entryDx=0;entryDy=0;" edge="1" parent="WIyWlLk6GJQsqaUBKTNV-1" source="cdySZ4cRYepUSvJREWyh-24" target="cdySZ4cRYepUSvJREWyh-31">
          <mxGeometry relative="1" as="geometry" />
        </mxCell>
        <mxCell id="cdySZ4cRYepUSvJREWyh-24" value="L&#39;u/i/a choisi est-il présent dans la liste des u/i/a de la recette ?" style="rhombus;whiteSpace=wrap;html=1;" vertex="1" parent="WIyWlLk6GJQsqaUBKTNV-1">
          <mxGeometry x="1330" y="1000" width="100" height="90" as="geometry" />
        </mxCell>
        <mxCell id="cdySZ4cRYepUSvJREWyh-34" style="edgeStyle=orthogonalEdgeStyle;rounded=0;orthogonalLoop=1;jettySize=auto;html=1;entryX=1;entryY=0.5;entryDx=0;entryDy=0;" edge="1" parent="WIyWlLk6GJQsqaUBKTNV-1" source="cdySZ4cRYepUSvJREWyh-26" target="cdySZ4cRYepUSvJREWyh-31">
          <mxGeometry relative="1" as="geometry">
            <Array as="points">
              <mxPoint x="1570" y="1160" />
            </Array>
          </mxGeometry>
        </mxCell>
        <mxCell id="cdySZ4cRYepUSvJREWyh-26" value="Supprime la recette des recettes sélectionnées" style="rounded=1;whiteSpace=wrap;html=1;" vertex="1" parent="WIyWlLk6GJQsqaUBKTNV-1">
          <mxGeometry x="1510" y="1015" width="120" height="60" as="geometry" />
        </mxCell>
        <mxCell id="cdySZ4cRYepUSvJREWyh-36" value="non" style="edgeStyle=orthogonalEdgeStyle;rounded=0;orthogonalLoop=1;jettySize=auto;html=1;entryX=1;entryY=0.5;entryDx=0;entryDy=0;" edge="1" parent="WIyWlLk6GJQsqaUBKTNV-1" source="cdySZ4cRYepUSvJREWyh-31" target="cdySZ4cRYepUSvJREWyh-13">
          <mxGeometry relative="1" as="geometry">
            <Array as="points">
              <mxPoint x="1380" y="1310" />
            </Array>
          </mxGeometry>
        </mxCell>
        <mxCell id="cdySZ4cRYepUSvJREWyh-31" value="Y-a-t-il encore des recettes ?" style="rhombus;whiteSpace=wrap;html=1;" vertex="1" parent="WIyWlLk6GJQsqaUBKTNV-1">
          <mxGeometry x="1340" y="1120" width="80" height="80" as="geometry" />
        </mxCell>
        <mxCell id="cdySZ4cRYepUSvJREWyh-47" style="edgeStyle=orthogonalEdgeStyle;rounded=0;orthogonalLoop=1;jettySize=auto;html=1;entryX=0.5;entryY=0;entryDx=0;entryDy=0;" edge="1" parent="WIyWlLk6GJQsqaUBKTNV-1" source="cdySZ4cRYepUSvJREWyh-38" target="cdySZ4cRYepUSvJREWyh-41">
          <mxGeometry relative="1" as="geometry" />
        </mxCell>
        <mxCell id="cdySZ4cRYepUSvJREWyh-38" value="Saisie des caractères dans le champ ustensile/ingrédients/appareils" style="rounded=1;whiteSpace=wrap;html=1;" vertex="1" parent="WIyWlLk6GJQsqaUBKTNV-1">
          <mxGeometry x="853" y="920" width="190" height="60" as="geometry" />
        </mxCell>
        <mxCell id="cdySZ4cRYepUSvJREWyh-49" value="non" style="edgeStyle=orthogonalEdgeStyle;rounded=0;orthogonalLoop=1;jettySize=auto;html=1;entryX=0.5;entryY=0;entryDx=0;entryDy=0;" edge="1" parent="WIyWlLk6GJQsqaUBKTNV-1" source="cdySZ4cRYepUSvJREWyh-41" target="cdySZ4cRYepUSvJREWyh-48">
          <mxGeometry relative="1" as="geometry" />
        </mxCell>
        <mxCell id="cdySZ4cRYepUSvJREWyh-52" style="edgeStyle=orthogonalEdgeStyle;rounded=0;orthogonalLoop=1;jettySize=auto;html=1;" edge="1" parent="WIyWlLk6GJQsqaUBKTNV-1" source="cdySZ4cRYepUSvJREWyh-41" target="cdySZ4cRYepUSvJREWyh-51">
          <mxGeometry relative="1" as="geometry" />
        </mxCell>
        <mxCell id="cdySZ4cRYepUSvJREWyh-41" value="Les caractères saisies sont présent dans la liste des u/i/a ?" style="rhombus;whiteSpace=wrap;html=1;" vertex="1" parent="WIyWlLk6GJQsqaUBKTNV-1">
          <mxGeometry x="908" y="1010" width="80" height="80" as="geometry" />
        </mxCell>
        <mxCell id="cdySZ4cRYepUSvJREWyh-45" value="Met à jour la liste des u/i/a avec les u/i/a de la recettes" style="rounded=1;whiteSpace=wrap;html=1;fillColor=#ffe6cc;strokeColor=#d79b00;" vertex="1" parent="WIyWlLk6GJQsqaUBKTNV-1">
          <mxGeometry x="680" y="1100" width="120" height="60" as="geometry" />
        </mxCell>
        <mxCell id="cdySZ4cRYepUSvJREWyh-46" value="Fin" style="ellipse;whiteSpace=wrap;html=1;aspect=fixed;" vertex="1" parent="WIyWlLk6GJQsqaUBKTNV-1">
          <mxGeometry x="140" y="115" width="80" height="80" as="geometry" />
        </mxCell>
        <mxCell id="cdySZ4cRYepUSvJREWyh-48" value="le mot clé est supprimé de la liste" style="rounded=1;whiteSpace=wrap;html=1;" vertex="1" parent="WIyWlLk6GJQsqaUBKTNV-1">
          <mxGeometry x="888" y="1160" width="120" height="60" as="geometry" />
        </mxCell>
        <mxCell id="cdySZ4cRYepUSvJREWyh-51" value="Fin" style="ellipse;whiteSpace=wrap;html=1;aspect=fixed;" vertex="1" parent="WIyWlLk6GJQsqaUBKTNV-1">
          <mxGeometry x="1040" y="1010" width="80" height="80" as="geometry" />
        </mxCell>
        <mxCell id="cdySZ4cRYepUSvJREWyh-55" style="edgeStyle=orthogonalEdgeStyle;rounded=0;orthogonalLoop=1;jettySize=auto;html=1;" edge="1" parent="WIyWlLk6GJQsqaUBKTNV-1" source="cdySZ4cRYepUSvJREWyh-53" target="cdySZ4cRYepUSvJREWyh-18">
          <mxGeometry relative="1" as="geometry" />
        </mxCell>
        <mxCell id="cdySZ4cRYepUSvJREWyh-53" value="Le tag s&#39;affiche sous le champs de recherche" style="rounded=1;whiteSpace=wrap;html=1;" vertex="1" parent="WIyWlLk6GJQsqaUBKTNV-1">
          <mxGeometry x="1190" y="750" width="120" height="60" as="geometry" />
        </mxCell>
      </root>
    </mxGraphModel>
  </diagram>
</mxfile>
